<svg xmlns="http://www.w3.org/2000/svg" width="19.156" height="13.469" viewBox="0 0 19.156 13.469"><g transform="translate(0 -76)"><g transform="translate(0 81.986)"><g transform="translate(0 0)"><path d="M18.407,236H.748a.748.748,0,1,0,0,1.5H18.407a.748.748,0,1,0,0-1.5Z" transform="translate(0 -236)"></path></g></g><g transform="translate(0 76)"><g transform="translate(0 0)"><path d="M18.407,76H.748a.748.748,0,0,0,0,1.5H18.407a.748.748,0,1,0,0-1.5Z" transform="translate(0 -76)"></path></g></g><g transform="translate(0 87.972)"><g transform="translate(0 0)"><path d="M18.407,396H.748a.748.748,0,0,0,0,1.5H18.407a.748.748,0,0,0,0-1.5Z" transform="translate(0 -396)"></path></g></g></g></svg>